<svg width="72" height="49" viewBox="0 0 72 49" fill="none" xmlns="http://www.w3.org/2000/svg">
<path d="M56.2398 7.336H68.0478V0.903996H37.9998V7.336H48.4638V12.52C48.4638 25.096 45.1038 35.08 36.2718 39.976C27.3438 35.08 23.9838 25.096 23.9838 12.52V7.336H34.4478V0.903996H4.30375V7.336H16.2078V12.52C16.2078 23.656 11.7918 35.848 0.36775 41.128L5.16775 47.272C12.2718 43.72 16.9758 37.672 19.6638 30.472C22.3518 38.824 27.4398 45.064 36.2718 48.424C45.0078 45.064 49.9998 38.92 52.6878 30.664C55.3758 37.768 59.8878 43.72 66.7998 47.272L71.5998 41.128C60.3678 35.752 56.2398 23.56 56.2398 12.52V7.336Z" fill="black"/>
</svg>
