<svg width="71" height="45" viewBox="0 0 71 45" fill="none" xmlns="http://www.w3.org/2000/svg">
<path d="M54.8558 0.111996H46.9838V11.632C46.9838 19.696 43.4318 29.872 35.2718 36.208C27.1118 29.776 23.5598 19.408 23.5598 11.632V0.111996H15.6877V11.248C15.6877 20.176 11.1758 32.176 0.135751 37.552L4.74375 43.312C12.3278 39.376 17.1278 32.272 19.6238 24.688C22.2158 32.656 27.2078 40.432 35.2718 44.56C43.2397 40.624 48.2318 33.04 50.8238 25.072C53.3198 32.752 58.2158 39.472 65.8958 43.216L70.3118 37.36C59.3678 32.368 54.8558 21.136 54.8558 11.248V0.111996Z" fill="black"/>
</svg>
