<svg width="58" height="56" viewBox="0 0 58 56" fill="none" xmlns="http://www.w3.org/2000/svg">
<path d="M28.5121 49.056C21.0241 49.056 15.456 45.312 15.456 39.936C15.456 34.56 21.0241 30.816 28.5121 30.816C36 30.816 41.664 34.56 41.664 39.936C41.664 45.312 36 49.056 28.5121 49.056ZM28.5121 24.192C16.32 24.192 7.392 30.624 7.392 39.936C7.392 49.248 16.32 55.68 28.5121 55.68C40.7041 55.68 49.728 49.248 49.728 39.936C49.728 30.624 40.7041 24.192 28.5121 24.192ZM32.448 11.616V0H24.576V11.616H0V18.144H57.024V11.616H32.448Z" fill="black"/>
</svg>
