<svg width="560" height="89" viewBox="0 0 560 89" fill="none" xmlns="http://www.w3.org/2000/svg">
<path d="M1.15625 9.53125C0.65625 8.90625 0.375 8.375 0.3125 7.9375C0.25 7.5 0.21875 6.9375 0.21875 6.25C0.21875 5.5625 0.3125 5 0.5 4.5625C0.75 4.0625 1.28125 3.8125 2.09375 3.8125C2.59375 3.8125 3.03125 3.9375 3.40625 4.1875C3.78125 4.4375 4.125 4.78125 4.4375 5.21875C4.8125 5.59375 5.09375 6 5.28125 6.4375C5.46875 6.8125 5.625 7.21875 5.75 7.65625C6.5 10.2188 7.15625 12.5312 7.71875 14.5938C8.28125 16.6562 8.75 18.75 9.125 20.875C9.5625 22.9375 9.9375 25.125 10.25 27.4375C10.5625 29.6875 10.875 32.25 11.1875 35.125L12.125 36.8125C12.625 36.6875 13.125 36.4688 13.625 36.1562C14.125 35.8438 14.5312 35.5 14.8438 35.125C15.1562 34.6875 15.625 34 16.25 33.0625C16.9375 32.0625 17.6875 30.9688 18.5 29.7812C19.375 28.5312 20.2812 27.25 21.2188 25.9375C22.1562 24.625 23.0312 23.375 23.8438 22.1875C24.7188 20.9375 25.5 19.8438 26.1875 18.9062C26.875 17.9688 27.375 17.25 27.6875 16.75C28.1875 16.0625 28.5938 15.5938 28.9062 15.3438C29.2188 15.0312 29.75 14.875 30.5 14.875C31.125 14.875 31.9062 15.375 32.8438 16.375C33.8438 17.3125 34.9375 18.5625 36.125 20.125C37.375 21.625 38.625 23.3125 39.875 25.1875C41.125 27 42.3438 28.75 43.5312 30.4375C44.7812 32.125 45.9062 33.6562 46.9062 35.0312C47.9688 36.4062 48.875 37.3125 49.625 37.75C49.6875 37.75 49.75 37.7812 49.8125 37.8438C49.875 37.8438 49.9375 37.8438 50 37.8438H50.2812C50.3438 37.8438 50.4062 37.8125 50.4688 37.75L51.4062 36.8125L61.4375 2.21875C61.6875 1.40625 61.875 0.875 62 0.625C62.125 0.375 62.5 0.25 63.125 0.25C63.75 0.25 64.2188 0.40625 64.5312 0.71875C64.9062 0.96875 65.2188 1.3125 65.4688 1.75C65.7188 2.125 65.875 2.5625 65.9375 3.0625C66.0625 3.5625 66.125 4.0625 66.125 4.5625C66.125 5.25 65.9688 6.40625 65.6562 8.03125C65.4062 9.59375 65.0312 11.4062 64.5312 13.4688C64.0938 15.5312 63.5312 17.8125 62.8438 20.3125C62.2188 22.75 61.5 25.1562 60.6875 27.5312C59.875 29.9062 59.0312 32.2188 58.1562 34.4688C57.3438 36.6562 56.5 38.625 55.625 40.375C54.75 42.125 53.875 43.5312 53 44.5938C52.125 45.5938 51.2812 46.0938 50.4688 46.0938C50.4062 46.0938 50.25 46.0625 50 46C49.8125 46 49.6875 46 49.625 46C47.75 44.375 46 42.6875 44.375 40.9375C42.8125 39.1875 41.3125 37.4062 39.875 35.5938C38.4375 33.7188 37 31.8438 35.5625 29.9688C34.1875 28.0938 32.75 26.125 31.25 24.0625C31.1875 24 31.0625 23.8438 30.875 23.5938C30.6875 23.3438 30.5625 23.2188 30.5 23.2188C30.375 23.2188 30.2812 23.1875 30.2188 23.125C30.0938 23.125 30.0312 23.125 30.0312 23.125C30.0312 23.0625 30 23.0312 29.9375 23.0312C29.125 23.0312 28.2188 23.625 27.2188 24.8125C26.2812 25.9375 25.2812 27.3438 24.2188 29.0312C23.1562 30.7188 22 32.5625 20.75 34.5625C19.5625 36.5625 18.3438 38.4062 17.0938 40.0938C15.8438 41.7188 14.5625 43.125 13.25 44.3125C12 45.4375 10.6875 46 9.3125 46C9.3125 46 9.21875 45.9375 9.03125 45.8125C8.84375 45.6875 8.65625 45.5312 8.46875 45.3438C8.34375 45.0938 8.1875 44.875 8 44.6875C7.8125 44.4375 7.6875 44.25 7.625 44.125C7.5625 44.0625 7.53125 43.9375 7.53125 43.75C7.53125 43.5 7.5625 43.3438 7.625 43.2812L1.15625 9.53125ZM69.5938 27.7188C69.5312 27.7188 69.375 27.625 69.125 27.4375C68.875 27.1875 68.75 26.9688 68.75 26.7812C68.6875 26.7812 68.6562 26.7188 68.6562 26.5938V26.125C68.6562 26.0625 68.6875 26 68.75 25.9375C69.4375 25.25 70 24.75 70.4375 24.4375C70.9375 24.125 71.5938 23.9688 72.4062 23.9688C72.6562 23.9688 72.875 24.0312 73.0625 24.1562C73.3125 24.2812 73.5 24.4062 73.625 24.5312C73.75 24.6562 73.875 24.7812 74 24.9062C74.1875 25.0312 74.375 25.0938 74.5625 25.0938C74.75 25.0938 75.125 24.8125 75.6875 24.25C76.25 23.625 77 22.875 77.9375 22C78.875 21.125 80.0312 20.1875 81.4062 19.1875C82.7812 18.125 84.3125 17.1562 86 16.2812C87.75 15.4062 89.625 14.6875 91.625 14.125C93.6875 13.5 95.9375 13.1875 98.375 13.1875H98.9375C99.1875 13.25 99.6875 13.375 100.438 13.5625C101.25 13.6875 102.094 13.875 102.969 14.125C103.844 14.3125 104.656 14.5 105.406 14.6875C106.219 14.8125 106.781 14.9062 107.094 14.9688C107.156 15.0312 107.281 15.1562 107.469 15.3438C107.656 15.4688 107.844 15.625 108.031 15.8125C108.219 15.9375 108.375 16.0938 108.5 16.2812C108.688 16.4688 108.812 16.625 108.875 16.75C108.875 16.8125 108.906 16.9062 108.969 17.0312C108.969 17.0312 108.969 17.0625 108.969 17.125C109.031 17.1875 109.062 17.2188 109.062 17.2188L108.969 17.4062C108.969 17.4062 108.969 17.4375 108.969 17.5C108.906 17.5625 108.875 17.625 108.875 17.6875C108.812 17.875 108.656 18.0938 108.406 18.3438C108.156 18.5312 108.031 18.625 108.031 18.625H91.5312C90.1562 18.625 88.6562 19.0312 87.0312 19.8438C85.4688 20.5938 83.9688 21.5938 82.5312 22.8438C81.1562 24.0312 80 25.4062 79.0625 26.9688C78.1875 28.4688 77.75 29.9375 77.75 31.375V44.6875C77.0625 44.6875 76.5625 44.7812 76.25 44.9688C75.9375 45.0938 75.6562 45.25 75.4062 45.4375C75.2188 45.625 75 45.7812 74.75 45.9062C74.5 46.0312 74.1562 46.0938 73.7188 46.0938H73.5312C73.4688 46.0938 73.4062 46.0625 73.3438 46C73.0938 45.9375 72.875 45.8125 72.6875 45.625C72.5 45.375 72.4062 45.2188 72.4062 45.1562L69.5938 27.7188ZM114.312 45.1562C113.875 43.9062 113.469 42.5625 113.094 41.125C112.781 39.625 112.5 38.0938 112.25 36.5312C112.062 34.9688 111.906 33.4375 111.781 31.9375C111.656 30.4375 111.594 29.0312 111.594 27.7188C111.594 27.5312 111.625 27.1875 111.688 26.6875C111.75 26.125 111.812 25.5625 111.875 25C112 24.4375 112.125 23.9062 112.25 23.4062C112.375 22.8438 112.469 22.4688 112.531 22.2812C112.594 22.2188 112.875 22.1562 113.375 22.0938C113.875 22.0312 114.188 22 114.312 22C115.125 22 115.781 22.4375 116.281 23.3125C116.781 24.1875 117.219 25.3125 117.594 26.6875C117.969 28.0625 118.219 29.5938 118.344 31.2812C118.531 32.9062 118.688 34.5 118.812 36.0625C118.938 37.5625 119 38.9062 119 40.0938C119 41.2812 119 42.0938 119 42.5312C119 42.7188 119 43.0312 119 43.4688C119.062 43.8438 119.062 44.25 119 44.6875C118.938 45.0625 118.781 45.375 118.531 45.625C118.344 45.875 118 46 117.5 46H117.125C117 46 116.812 45.9688 116.562 45.9062C116.312 45.7812 116.031 45.6875 115.719 45.625C115.406 45.5 115.125 45.4062 114.875 45.3438C114.625 45.2812 114.438 45.2188 114.312 45.1562ZM113.281 3.8125C113.281 2.25 114.281 1.09375 116.281 0.34375C116.719 0.15625 117.094 0.21875 117.406 0.53125C117.781 0.84375 118.062 1.25 118.25 1.75C118.5 2.25 118.656 2.78125 118.719 3.34375C118.844 3.84375 118.906 4.21875 118.906 4.46875C118.906 4.84375 118.812 5.15625 118.625 5.40625C118.438 5.59375 118.188 5.71875 117.875 5.78125C117.625 5.84375 117.344 5.875 117.031 5.875H116.281C115.406 5.875 114.688 5.78125 114.125 5.59375C113.562 5.40625 113.281 4.8125 113.281 3.8125ZM133.812 21.5312C132.062 21.5312 130.438 21.6875 128.938 22C127.5 22.25 125.906 22.375 124.156 22.375C123.469 22.375 123.031 22.125 122.844 21.625C122.656 21.0625 122.562 20.5312 122.562 20.0312V19.5625C122.688 19.3125 122.875 19 123.125 18.625C123.438 18.25 123.75 17.9062 124.062 17.5938C124.375 17.2188 124.625 16.9062 124.812 16.6562C125.062 16.4062 125.219 16.2812 125.281 16.2812H133.906V2.21875C133.906 1.96875 134 1.78125 134.188 1.65625C134.375 1.53125 134.594 1.4375 134.844 1.375C135.156 1.25 135.438 1.1875 135.688 1.1875C135.938 1.125 136.125 1.09375 136.25 1.09375C137.25 1.09375 137.969 1.46875 138.406 2.21875C138.906 2.90625 139.219 3.78125 139.344 4.84375C139.531 5.90625 139.594 7.0625 139.531 8.3125C139.531 9.5625 139.531 10.7188 139.531 11.7812C139.531 12.8438 139.594 13.7812 139.719 14.5938C139.906 15.3438 140.281 15.75 140.844 15.8125C141.344 15.875 142.281 16 143.656 16.1875C145.094 16.3125 146.562 16.5 148.062 16.75C149.625 16.9375 151.094 17.125 152.469 17.3125C153.844 17.5 154.844 17.625 155.469 17.6875C155.594 17.6875 155.812 17.75 156.125 17.875C156.5 17.9375 156.875 18 157.25 18.0625C157.688 18.125 158.062 18.2188 158.375 18.3438C158.688 18.4688 158.906 18.5625 159.031 18.625C159.156 18.625 159.344 18.75 159.594 19C159.844 19.25 159.969 19.4375 159.969 19.5625C159.969 20 159.844 20.4062 159.594 20.7812C159.344 21.1562 159.031 21.4688 158.656 21.7188C158.281 21.9062 157.875 22.0625 157.438 22.1875C157.062 22.25 156.688 22.2812 156.312 22.2812C156.188 22.2812 155.844 22.25 155.281 22.1875C154.719 22.0625 154.125 21.9375 153.5 21.8125C152.938 21.6875 152.375 21.5938 151.812 21.5312C151.312 21.4062 151 21.3438 150.875 21.3438H149.938C149.375 21.3438 148.781 21.3438 148.156 21.3438C147.531 21.3438 146.906 21.3438 146.281 21.3438H143.75C143.312 21.3438 142.875 21.3438 142.438 21.3438C142 21.3438 141.625 21.3438 141.312 21.3438H140.844L139.906 22.2812C139.906 22.3438 139.906 22.5625 139.906 22.9375C139.906 23.3125 139.875 23.75 139.812 24.25C139.75 24.75 139.688 25.2812 139.625 25.8438C139.625 26.3438 139.625 26.75 139.625 27.0625C139.625 30.4375 139.969 33.0938 140.656 35.0312C141.344 36.9688 142.406 38.4375 143.844 39.4375C145.344 40.375 147.219 40.9688 149.469 41.2188C151.781 41.4062 154.594 41.5 157.906 41.5C158.281 41.5 158.781 41.5 159.406 41.5C160.031 41.5 160.656 41.5 161.281 41.5C161.906 41.5 162.438 41.5 162.875 41.5C163.312 41.4375 163.562 41.4062 163.625 41.4062C163.688 41.4062 163.844 41.375 164.094 41.3125C164.344 41.1875 164.625 41.0938 164.938 41.0312C165.312 40.9062 165.594 40.7812 165.781 40.6562C166.031 40.5312 166.219 40.4688 166.344 40.4688C166.594 40.4688 166.781 40.5938 166.906 40.8438C167.094 41.0312 167.219 41.2812 167.281 41.5938C167.344 41.9062 167.375 42.1875 167.375 42.4375V43.0938C167.375 44.0938 167.156 44.8125 166.719 45.25C166.281 45.6875 165.25 45.9375 163.625 46H162.031C161.281 46 160.5 46 159.688 46C158.938 46.0625 158.156 46.0938 157.344 46.0938H155.938C152.375 46.0938 149.344 45.9688 146.844 45.7188C144.344 45.4062 142.281 44.9375 140.656 44.3125C139.031 43.625 137.75 42.7188 136.812 41.5938C135.875 40.4688 135.188 39 134.75 37.1875C134.375 35.375 134.125 33.1875 134 30.625C133.875 28.0625 133.812 25.0312 133.812 21.5312ZM173.656 45.1562C173.219 43.9062 172.812 42.5625 172.438 41.125C172.125 39.625 171.844 38.0938 171.594 36.5312C171.406 34.9688 171.25 33.4375 171.125 31.9375C171 30.4375 170.938 29.0312 170.938 27.7188C170.938 27.5312 170.969 27.1875 171.031 26.6875C171.094 26.125 171.156 25.5625 171.219 25C171.344 24.4375 171.469 23.9062 171.594 23.4062C171.719 22.8438 171.812 22.4688 171.875 22.2812C171.938 22.2188 172.219 22.1562 172.719 22.0938C173.219 22.0312 173.531 22 173.656 22C174.469 22 175.125 22.4375 175.625 23.3125C176.125 24.1875 176.562 25.3125 176.938 26.6875C177.312 28.0625 177.562 29.5938 177.688 31.2812C177.875 32.9062 178.031 34.5 178.156 36.0625C178.281 37.5625 178.344 38.9062 178.344 40.0938C178.344 41.2812 178.344 42.0938 178.344 42.5312C178.344 42.7188 178.344 43.0312 178.344 43.4688C178.406 43.8438 178.406 44.25 178.344 44.6875C178.281 45.0625 178.125 45.375 177.875 45.625C177.688 45.875 177.344 46 176.844 46H176.469C176.344 46 176.156 45.9688 175.906 45.9062C175.656 45.7812 175.375 45.6875 175.062 45.625C174.75 45.5 174.469 45.4062 174.219 45.3438C173.969 45.2812 173.781 45.2188 173.656 45.1562ZM172.625 3.8125C172.625 2.25 173.625 1.09375 175.625 0.34375C176.062 0.15625 176.438 0.21875 176.75 0.53125C177.125 0.84375 177.406 1.25 177.594 1.75C177.844 2.25 178 2.78125 178.062 3.34375C178.188 3.84375 178.25 4.21875 178.25 4.46875C178.25 4.84375 178.156 5.15625 177.969 5.40625C177.781 5.59375 177.531 5.71875 177.219 5.78125C176.969 5.84375 176.688 5.875 176.375 5.875H175.625C174.75 5.875 174.031 5.78125 173.469 5.59375C172.906 5.40625 172.625 4.8125 172.625 3.8125ZM204.5 25.8438C202.312 25.8438 200.375 26.25 198.688 27.0625C197.062 27.8125 195.594 28.8125 194.281 30.0625C192.969 31.3125 191.875 32.6562 191 34.0938C190.125 35.4688 189.344 36.7812 188.656 38.0312C188.031 39.2812 187.531 40.3125 187.156 41.125C186.844 41.9375 186.625 42.3438 186.5 42.3438C184.812 42.3438 183.625 41.9062 182.938 41.0312C182.25 40.1562 181.812 39.0938 181.625 37.8438C181.438 36.5312 181.406 35.1875 181.531 33.8125C181.719 32.375 181.812 31.125 181.812 30.0625V28.4688C181.812 27.7188 181.812 26.9375 181.812 26.125C181.875 25.3125 181.906 24.5625 181.906 23.875V22.2812C182.094 21.7812 182.344 21.5 182.656 21.4375C182.969 21.375 183.312 21.3438 183.688 21.3438C184.25 21.3438 184.719 21.6875 185.094 22.375C185.469 23 185.812 23.7812 186.125 24.7188C186.438 25.6562 186.688 26.5938 186.875 27.5312C187.062 28.4062 187.219 29.0938 187.344 29.5938C188.094 29.4688 188.781 29.1562 189.406 28.6562C190.031 28.1562 190.656 27.5625 191.281 26.875C191.969 26.1875 192.688 25.4688 193.438 24.7188C194.188 23.9688 195.062 23.2812 196.062 22.6562C197.062 21.9688 198.219 21.4062 199.531 20.9688C200.906 20.5312 202.469 20.3125 204.219 20.3125C207.719 20.3125 210.594 21.0938 212.844 22.6562C215.094 24.1562 216.812 26.1562 218 28.6562C219.25 31.0938 220.094 33.875 220.531 37C220.969 40.0625 221.188 43.1875 221.188 46.375C219.312 46.375 217.844 46.0938 216.781 45.5312C215.781 44.9062 215.062 44.125 214.625 43.1875C214.188 42.1875 213.938 41.0938 213.875 39.9062C213.812 38.6562 213.781 37.4062 213.781 36.1562C213.781 34.8438 213.688 33.5625 213.5 32.3125C213.375 31.0625 213 29.9688 212.375 29.0312C211.812 28.0938 210.906 27.3438 209.656 26.7812C208.469 26.1562 206.75 25.8438 204.5 25.8438ZM223.625 68.6875C224.375 68.6875 225.062 69.0312 225.688 69.7188C226.375 70.4688 227.031 71.3125 227.656 72.25C228.281 73.1875 228.875 74.125 229.438 75.0625C230 76.0625 230.594 76.75 231.219 77.125C232.531 78.1875 234 79.0625 235.625 79.75C237.312 80.4375 239.031 80.9688 240.781 81.3438C242.531 81.7812 244.281 82.0938 246.031 82.2812C247.844 82.5312 249.594 82.6562 251.281 82.6562C251.406 82.6562 251.625 82.625 251.938 82.5625C252.312 82.5625 252.688 82.5625 253.062 82.5625C253.438 82.5625 253.781 82.5312 254.094 82.4688C254.469 82.4688 254.719 82.4688 254.844 82.4688C255.781 82.0312 256.5 81.4375 257 80.6875C257.562 80 257.938 79.2188 258.125 78.3438C258.375 77.5312 258.531 76.6562 258.594 75.7188C258.656 74.7812 258.688 73.8438 258.688 72.9062C258.688 72.2188 258.625 71.0312 258.5 69.3438C258.438 67.7188 258.312 65.7812 258.125 63.5312C257.938 61.3438 257.688 59.0312 257.375 56.5938C257.125 54.1562 256.75 51.8438 256.25 49.6562C255.812 47.4688 255.25 45.5625 254.562 43.9375C253.875 42.3125 253.094 41.1875 252.219 40.5625C251.594 41.25 250.969 41.9375 250.344 42.625C249.719 43.25 249 43.8125 248.188 44.3125C247.438 44.8125 246.656 45.2188 245.844 45.5312C245.031 45.8438 244.125 46 243.125 46C241.125 46 239 45.7812 236.75 45.3438C234.5 44.9062 232.406 44.1562 230.469 43.0938C228.531 42.0312 226.938 40.6875 225.688 39.0625C224.438 37.375 223.812 35.2812 223.812 32.7812C223.812 30.4688 224.438 28.5312 225.688 26.9688C226.938 25.3438 228.469 24.0625 230.281 23.125C232.156 22.125 234.188 21.4062 236.375 20.9688C238.562 20.5312 240.625 20.3125 242.562 20.3125C243.188 20.3125 243.938 20.3438 244.812 20.4062C245.75 20.4062 246.688 20.4688 247.625 20.5938C248.562 20.7188 249.438 20.9062 250.25 21.1562C251.062 21.4062 251.719 21.7812 252.219 22.2812C252.281 22.4062 252.344 22.75 252.406 23.3125C252.531 23.8125 252.625 24.375 252.688 25C252.812 25.625 252.906 26.2188 252.969 26.7812C253.031 27.3438 253.062 27.6562 253.062 27.7188C253.312 28.8438 253.656 29.9375 254.094 31C254.594 32 255.125 33.0625 255.688 34.1875C256.25 35.25 256.781 36.3125 257.281 37.375C257.781 38.4375 258.188 39.5 258.5 40.5625C260.188 45.9375 261.562 51.2812 262.625 56.5938C263.688 61.9062 264.219 67.375 264.219 73C264.219 73.25 264.188 73.6875 264.125 74.3125C264.125 75 264.125 75.6875 264.125 76.375C264.125 77.125 264.094 77.8125 264.031 78.4375C264.031 79.125 264.031 79.5938 264.031 79.8438C263.969 81.4688 263.469 82.8125 262.531 83.875C261.594 85 260.438 85.8438 259.062 86.4062C257.75 87.0312 256.312 87.4688 254.75 87.7188C253.25 88.0312 251.906 88.1875 250.719 88.1875C248.719 88.1875 246.625 88 244.438 87.625C242.312 87.3125 240.25 86.8125 238.25 86.125C236.25 85.4375 234.344 84.5625 232.531 83.5C230.781 82.5 229.25 81.2812 227.938 79.8438C226.625 78.4062 225.562 76.7812 224.75 74.9688C224 73.1562 223.625 71.0625 223.625 68.6875ZM229.25 33.3438C229.25 34.5938 229.625 35.6875 230.375 36.625C231.125 37.5625 232.062 38.3438 233.188 38.9688C234.312 39.5312 235.5 39.9688 236.75 40.2812C238 40.5312 239.094 40.6562 240.031 40.6562C243.594 40.6562 246.062 39.7812 247.438 38.0312C248.812 36.2188 249.5 33.5938 249.5 30.1562C249.5 29.1562 249.312 28.375 248.938 27.8125C248.562 27.1875 248.062 26.75 247.438 26.5C246.812 26.25 246.094 26.0938 245.281 26.0312C244.469 25.9062 243.656 25.8438 242.844 25.8438C241.719 25.8438 240.375 25.9688 238.812 26.2188C237.25 26.4062 235.75 26.7812 234.312 27.3438C232.938 27.9062 231.75 28.6875 230.75 29.6875C229.75 30.625 229.25 31.8438 229.25 33.3438ZM293.656 11.2188C293.656 10.7812 293.656 10.2188 293.656 9.53125C293.719 8.78125 293.812 8.0625 293.938 7.375C294.125 6.6875 294.406 6.09375 294.781 5.59375C295.156 5.09375 295.719 4.84375 296.469 4.84375C297.281 4.84375 297.875 5.03125 298.25 5.40625C298.688 5.78125 298.969 6.25 299.094 6.8125C299.219 7.375 299.25 8 299.188 8.6875C299.188 9.3125 299.219 9.875 299.281 10.375C299.281 10.875 299.312 11.75 299.375 13C299.438 14.1875 299.5 15.4688 299.562 16.8438C299.688 18.1562 299.781 19.4375 299.844 20.6875C299.969 21.875 300.031 22.7188 300.031 23.2188H301.062L315.594 15.8125C316.219 15.0625 316.938 14.375 317.75 13.75C318.562 13.0625 319.344 12.4062 320.094 11.7812C320.906 11.0938 321.719 10.4375 322.531 9.8125C323.344 9.125 324.094 8.40625 324.781 7.65625H327.594V11.2188C327.594 11.5938 327.188 12.1875 326.375 13C325.562 13.75 324.625 14.5625 323.562 15.4375C322.562 16.3125 321.562 17.1562 320.562 17.9688C319.562 18.7812 318.844 19.3125 318.406 19.5625C318.031 19.75 317.344 20.125 316.344 20.6875C315.406 21.1875 314.406 21.75 313.344 22.375C312.281 22.9375 311.281 23.4688 310.344 23.9688C309.406 24.4688 308.75 24.8125 308.375 25L333.969 38.7812C334.219 38.7812 334.781 38.8125 335.656 38.875C336.594 38.9375 337.531 39.0938 338.469 39.3438C339.469 39.5938 340.344 39.9688 341.094 40.4688C341.844 40.9062 342.219 41.5312 342.219 42.3438C342.219 42.7188 342.156 43.0625 342.031 43.375C341.969 43.6875 341.688 43.9375 341.188 44.125C341 44.125 340.719 44.1562 340.344 44.2188C339.969 44.2188 339.562 44.2188 339.125 44.2188C338.75 44.2188 338.344 44.2188 337.906 44.2188C337.531 44.2188 337.281 44.2188 337.156 44.2188C334.969 44.2188 332.875 43.9062 330.875 43.2812C328.938 42.5938 327 41.75 325.062 40.75C323.188 39.6875 321.344 38.5625 319.531 37.375C317.781 36.1875 315.969 35.0938 314.094 34.0938C312.219 33.0312 310.281 32.1562 308.281 31.4688C306.281 30.7188 304.188 30.3438 302 30.3438C301.875 30.3438 301.688 30.375 301.438 30.4375C301.188 30.4375 301.062 30.4375 301.062 30.4375C300.938 31 300.906 31.7812 300.969 32.7812C301.031 33.7188 301.062 34.7812 301.062 35.9688C301.062 37.0938 301 38.2812 300.875 39.5312C300.812 40.7188 300.625 41.8125 300.312 42.8125C300.062 43.75 299.656 44.5625 299.094 45.25C298.531 45.875 297.781 46.1875 296.844 46.1875C295.969 46.1875 295.406 46.0312 295.156 45.7188C294.906 45.4062 294.75 44.5938 294.688 43.2812C294.688 43.0312 294.656 42.5938 294.594 41.9688C294.594 41.2812 294.594 40.5 294.594 39.625V36.8125C294.594 35.875 294.594 34.9688 294.594 34.0938C294.656 33.2188 294.688 32.4688 294.688 31.8438V30.4375C294.688 30.125 294.656 29.5 294.594 28.5625C294.531 27.5625 294.438 26.4062 294.312 25.0938C294.25 23.7812 294.188 22.375 294.125 20.875C294.062 19.375 294 17.9688 293.938 16.6562C293.875 15.3438 293.812 14.2188 293.75 13.2812C293.688 12.2812 293.656 11.5938 293.656 11.2188ZM344.844 34.9375C344.844 32.8125 345.219 30.625 345.969 28.375C346.719 26.125 347.781 24.0625 349.156 22.1875C350.594 20.3125 352.281 18.7812 354.219 17.5938C356.156 16.4062 358.375 15.8125 360.875 15.8125C364.375 15.8125 367.312 16.1562 369.688 16.8438C372.062 17.5312 374 18.5938 375.5 20.0312C377 21.4062 378.062 23.2188 378.688 25.4688C379.375 27.6562 379.719 30.25 379.719 33.25C379.719 33.4375 379.688 33.8125 379.625 34.375C379.625 34.875 379.625 35.4062 379.625 35.9688C379.625 36.5312 379.594 37.0938 379.531 37.6562C379.531 38.1562 379.531 38.5312 379.531 38.7812C379.094 40.3438 378.25 41.625 377 42.625C375.812 43.5625 374.406 44.2812 372.781 44.7812C371.219 45.2812 369.562 45.625 367.812 45.8125C366.125 46 364.594 46.0938 363.219 46.0938C361.281 46.0938 359.25 45.9688 357.125 45.7188C355 45.4688 353 44.9688 351.125 44.2188C349.312 43.4062 347.812 42.2812 346.625 40.8438C345.438 39.3438 344.844 37.375 344.844 34.9375ZM349.531 33.7188C349.531 35.3438 350 36.6875 350.938 37.75C351.938 38.75 353.125 39.5312 354.5 40.0938C355.875 40.6562 357.344 41.0312 358.906 41.2188C360.531 41.4062 361.906 41.5 363.031 41.5C364.156 41.5 365.125 41.5 365.938 41.5C366.812 41.5 367.656 41.4062 368.469 41.2188C369.281 41.0312 370.125 40.75 371 40.375C371.875 40 372.906 39.4688 374.094 38.7812C374.719 37.7812 375.062 36.8125 375.125 35.875C375.188 34.875 375.219 33.8438 375.219 32.7812C375.219 30.6562 374.812 28.7812 374 27.1562C373.188 25.5312 372.094 24.2188 370.719 23.2188C369.344 22.2188 367.688 21.5625 365.75 21.25C363.875 20.875 361.781 20.9062 359.469 21.3438C358.531 21.5312 357.469 22.0938 356.281 23.0312C355.094 23.9688 354 25.0625 353 26.3125C352 27.5625 351.156 28.875 350.469 30.25C349.844 31.5625 349.531 32.7188 349.531 33.7188ZM385.062 27.7188C385 27.7188 384.844 27.625 384.594 27.4375C384.344 27.1875 384.219 26.9688 384.219 26.7812C384.156 26.7812 384.125 26.7188 384.125 26.5938V26.125C384.125 26.0625 384.156 26 384.219 25.9375C384.906 25.25 385.469 24.75 385.906 24.4375C386.406 24.125 387.062 23.9688 387.875 23.9688C388.125 23.9688 388.344 24.0312 388.531 24.1562C388.781 24.2812 388.969 24.4062 389.094 24.5312C389.219 24.6562 389.344 24.7812 389.469 24.9062C389.656 25.0312 389.844 25.0938 390.031 25.0938C390.219 25.0938 390.594 24.8125 391.156 24.25C391.719 23.625 392.469 22.875 393.406 22C394.344 21.125 395.5 20.1875 396.875 19.1875C398.25 18.125 399.781 17.1562 401.469 16.2812C403.219 15.4062 405.094 14.6875 407.094 14.125C409.156 13.5 411.406 13.1875 413.844 13.1875H414.406C414.656 13.25 415.156 13.375 415.906 13.5625C416.719 13.6875 417.562 13.875 418.438 14.125C419.312 14.3125 420.125 14.5 420.875 14.6875C421.688 14.8125 422.25 14.9062 422.562 14.9688C422.625 15.0312 422.75 15.1562 422.938 15.3438C423.125 15.4688 423.312 15.625 423.5 15.8125C423.688 15.9375 423.844 16.0938 423.969 16.2812C424.156 16.4688 424.281 16.625 424.344 16.75C424.344 16.8125 424.375 16.9062 424.438 17.0312C424.438 17.0312 424.438 17.0625 424.438 17.125C424.5 17.1875 424.531 17.2188 424.531 17.2188L424.438 17.4062C424.438 17.4062 424.438 17.4375 424.438 17.5C424.375 17.5625 424.344 17.625 424.344 17.6875C424.281 17.875 424.125 18.0938 423.875 18.3438C423.625 18.5312 423.5 18.625 423.5 18.625H407C405.625 18.625 404.125 19.0312 402.5 19.8438C400.938 20.5938 399.438 21.5938 398 22.8438C396.625 24.0312 395.469 25.4062 394.531 26.9688C393.656 28.4688 393.219 29.9375 393.219 31.375V44.6875C392.531 44.6875 392.031 44.7812 391.719 44.9688C391.406 45.0938 391.125 45.25 390.875 45.4375C390.688 45.625 390.469 45.7812 390.219 45.9062C389.969 46.0312 389.625 46.0938 389.188 46.0938H389C388.938 46.0938 388.875 46.0625 388.812 46C388.562 45.9375 388.344 45.8125 388.156 45.625C387.969 45.375 387.875 45.2188 387.875 45.1562L385.062 27.7188ZM426.969 29.5C426.969 27.375 427.562 25.3125 428.75 23.3125C429.938 21.3125 431.438 19.5625 433.25 18.0625C435.125 16.5625 437.156 15.375 439.344 14.5C441.594 13.625 443.719 13.1875 445.719 13.1875C447.344 13.1875 448.938 13.4062 450.5 13.8438C452.125 14.2188 453.562 14.8438 454.812 15.7188C456.062 16.5938 457.062 17.6875 457.812 19C458.625 20.25 459.031 21.75 459.031 23.5C459.031 24.3125 458.969 24.9688 458.844 25.4688C458.781 25.9062 458.594 26.3125 458.281 26.6875C457.969 27 457.562 27.3125 457.062 27.625C456.625 27.875 456.062 28.2188 455.375 28.6562C455 28.7188 454.438 28.875 453.688 29.125C452.938 29.3125 452.062 29.5312 451.062 29.7812C450.125 30.0312 449.125 30.2812 448.062 30.5312C447 30.7812 445.969 31.0312 444.969 31.2812C444.031 31.5312 443.188 31.75 442.438 31.9375C441.688 32.125 441.125 32.25 440.75 32.3125C440.562 32.375 440.156 32.4375 439.531 32.5C438.906 32.5625 438.219 32.6562 437.469 32.7812C436.781 32.8438 436.125 32.9375 435.5 33.0625C434.875 33.125 434.5 33.1875 434.375 33.25C434.188 33.3125 433.969 33.4688 433.719 33.7188C433.531 33.9062 433.438 34.0312 433.438 34.0938C433.438 35.3438 433.781 36.4062 434.469 37.2812C435.156 38.0938 436.031 38.7812 437.094 39.3438C438.156 39.9062 439.344 40.3438 440.656 40.6562C442.031 40.9062 443.375 41.125 444.688 41.3125C446 41.4375 447.219 41.5 448.344 41.5C449.469 41.5 450.375 41.5 451.062 41.5C454.188 41.5 457.25 41.3438 460.25 41.0312C463.25 40.6562 466.312 40.4688 469.438 40.4688V41.2188C469.438 41.5938 469.375 42 469.25 42.4375C469.188 42.8125 469.062 43.1875 468.875 43.5625C468.688 43.875 468.438 44.0625 468.125 44.125C465.75 44.625 463.625 45.0312 461.75 45.3438C459.938 45.5938 458.219 45.7812 456.594 45.9062C454.969 45.9688 453.281 46 451.531 46C449.781 46.0625 447.844 46.0938 445.719 46.0938H444.125C443.438 46.0938 442.688 46.0625 441.875 46C441.062 46 440.281 46 439.531 46H437.938C436 45.5 434.312 44.7188 432.875 43.6562C431.5 42.5312 430.375 41.2188 429.5 39.7188C428.625 38.2188 427.969 36.5938 427.531 34.8438C427.156 33.0938 426.969 31.3125 426.969 29.5ZM447.969 18.4375C447.156 18.4375 446.219 18.5312 445.156 18.7188C444.156 18.8438 443.094 19.0938 441.969 19.4688C440.906 19.7812 439.844 20.2188 438.781 20.7812C437.719 21.2812 436.781 21.9062 435.969 22.6562C435.156 23.3438 434.469 24.125 433.906 25C433.406 25.875 433.156 26.8438 433.156 27.9062H437C438.375 27.9062 439.781 27.8438 441.219 27.7188C442.656 27.5938 444.062 27.4062 445.438 27.1562C446.812 26.8438 448 26.4062 449 25.8438C450.062 25.2188 450.906 24.4375 451.531 23.5C452.219 22.5625 452.562 21.4062 452.562 20.0312V19.5625L451.625 18.625C451.5 18.625 451.25 18.625 450.875 18.625C450.562 18.5625 450.219 18.5312 449.844 18.5312C449.469 18.4688 449.094 18.4375 448.719 18.4375C448.406 18.4375 448.156 18.4375 447.969 18.4375ZM498.688 41.4062C497.688 41.4062 496.625 41.5625 495.5 41.875C494.438 42.125 493.375 42.4375 492.312 42.8125C491.25 43.1875 490.125 43.5312 488.938 43.8438C487.812 44.0938 486.656 44.2188 485.469 44.2188C483.656 44.2188 481.906 43.9375 480.219 43.375C478.531 42.8125 477.031 41.9688 475.719 40.8438C474.469 39.7188 473.469 38.375 472.719 36.8125C471.969 35.1875 471.594 33.375 471.594 31.375C471.594 29.625 472.125 28 473.188 26.5C474.312 25 475.688 23.75 477.312 22.75C478.938 21.75 480.688 20.9688 482.562 20.4062C484.438 19.8438 486.125 19.5625 487.625 19.5625C488.312 19.5625 489.156 19.625 490.156 19.75C491.219 19.8125 492.344 19.9688 493.531 20.2188C494.781 20.4062 496.031 20.6875 497.281 21.0625C498.531 21.375 499.656 21.8125 500.656 22.375C501.719 22.9375 502.594 23.5938 503.281 24.3438C504.031 25.0312 504.469 25.8438 504.594 26.7812C504.594 27.0938 504.531 27.6562 504.406 28.4688C504.281 29.2188 504.188 30.0312 504.125 30.9062C504.062 31.7812 503.969 32.625 503.844 33.4375C503.781 34.1875 503.719 34.75 503.656 35.125V35.6875C503.656 37.0625 503.969 38.0938 504.594 38.7812C505.219 39.4688 505.969 39.9688 506.844 40.2812C507.781 40.5312 508.75 40.6562 509.75 40.6562H512.75C513.688 40.6562 514.281 40.6562 514.531 40.6562C514.781 40.5938 514.938 40.5625 515 40.5625C515.125 40.5625 515.281 40.5625 515.469 40.5625C515.719 40.5 516.344 40.4688 517.344 40.4688C518.156 40.4688 518.781 40.625 519.219 40.9375C519.656 41.25 519.875 41.9062 519.875 42.9062C519.875 43.9688 519.531 44.7188 518.844 45.1562C518.156 45.5938 517.344 45.875 516.406 46C515.469 46.1875 514.531 46.25 513.594 46.1875C512.656 46.125 511.938 46.0938 511.438 46.0938C510 46.0938 508.625 45.8438 507.312 45.3438C506.062 44.8438 504.906 44.3125 503.844 43.75C502.781 43.125 501.812 42.5938 500.938 42.1562C500.062 41.6562 499.312 41.4062 498.688 41.4062ZM477.125 32.3125C477.125 33.8125 477.438 35.0312 478.062 35.9688C478.75 36.8438 479.562 37.5 480.5 37.9375C481.5 38.3125 482.594 38.5625 483.781 38.6875C484.969 38.75 486.125 38.7812 487.25 38.7812C487.688 38.7812 488.406 38.75 489.406 38.6875C490.469 38.625 491.562 38.5 492.688 38.3125C493.812 38.0625 494.812 37.75 495.688 37.375C496.625 37 497.156 36.5312 497.281 35.9688L499.156 28.6562C499.281 28.1562 499.156 27.7188 498.781 27.3438C498.406 26.9688 497.875 26.6562 497.188 26.4062C496.562 26.1562 495.844 25.9375 495.031 25.75C494.281 25.5625 493.531 25.4062 492.781 25.2812C492.031 25.1562 491.344 25.0625 490.719 25C490.156 24.9375 489.812 24.9062 489.688 24.9062C488.562 24.9062 487.25 25.0312 485.75 25.2812C484.312 25.4688 482.938 25.8438 481.625 26.4062C480.375 26.9062 479.312 27.625 478.438 28.5625C477.562 29.5 477.125 30.75 477.125 32.3125ZM543.031 25.8438C540.844 25.8438 538.906 26.25 537.219 27.0625C535.594 27.8125 534.125 28.8125 532.812 30.0625C531.5 31.3125 530.406 32.6562 529.531 34.0938C528.656 35.4688 527.875 36.7812 527.188 38.0312C526.562 39.2812 526.062 40.3125 525.688 41.125C525.375 41.9375 525.156 42.3438 525.031 42.3438C523.344 42.3438 522.156 41.9062 521.469 41.0312C520.781 40.1562 520.344 39.0938 520.156 37.8438C519.969 36.5312 519.938 35.1875 520.062 33.8125C520.25 32.375 520.344 31.125 520.344 30.0625V28.4688C520.344 27.7188 520.344 26.9375 520.344 26.125C520.406 25.3125 520.438 24.5625 520.438 23.875V22.2812C520.625 21.7812 520.875 21.5 521.188 21.4375C521.5 21.375 521.844 21.3438 522.219 21.3438C522.781 21.3438 523.25 21.6875 523.625 22.375C524 23 524.344 23.7812 524.656 24.7188C524.969 25.6562 525.219 26.5938 525.406 27.5312C525.594 28.4062 525.75 29.0938 525.875 29.5938C526.625 29.4688 527.312 29.1562 527.938 28.6562C528.562 28.1562 529.188 27.5625 529.812 26.875C530.5 26.1875 531.219 25.4688 531.969 24.7188C532.719 23.9688 533.594 23.2812 534.594 22.6562C535.594 21.9688 536.75 21.4062 538.062 20.9688C539.438 20.5312 541 20.3125 542.75 20.3125C546.25 20.3125 549.125 21.0938 551.375 22.6562C553.625 24.1562 555.344 26.1562 556.531 28.6562C557.781 31.0938 558.625 33.875 559.062 37C559.5 40.0625 559.719 43.1875 559.719 46.375C557.844 46.375 556.375 46.0938 555.312 45.5312C554.312 44.9062 553.594 44.125 553.156 43.1875C552.719 42.1875 552.469 41.0938 552.406 39.9062C552.344 38.6562 552.312 37.4062 552.312 36.1562C552.312 34.8438 552.219 33.5625 552.031 32.3125C551.906 31.0625 551.531 29.9688 550.906 29.0312C550.344 28.0938 549.438 27.3438 548.188 26.7812C547 26.1562 545.281 25.8438 543.031 25.8438Z" fill="black"/>
</svg>
